<?xml version="1.0" encoding="UTF-8"?>
<svg id="Layer_1" xmlns="http://www.w3.org/2000/svg" version="1.1" viewBox="0 0 311.81 141.73">
  <!-- Generator: Adobe Illustrator 29.8.6, SVG Export Plug-In . SVG Version: 2.1.1 Build 1)  -->
  <defs>
    <style>
      .st0, .st1, .st2 {
        fill: none;
      }

      .st3 {
        fill: #e8e7e2;
      }

      .st1 {
        stroke: #000;
        stroke-width: .2px;
      }

      .st1, .st2 {
        stroke-miterlimit: 10;
      }

      .st4 {
        fill: #cba365;
      }

      .st2 {
        stroke: #fff;
        stroke-width: .05px;
      }
    </style>
  </defs>
  <rect class="st2" x="2976.86" y="4620.92" width="18.17" height="18.17"/>
  <rect class="st2" x="2976.86" y="4620.92" width="18.17" height="18.17"/>
  <rect class="st2" x="2967.77" y="4602.75" width="36.34" height="36.34"/>
  <rect class="st2" x="2958.69" y="4584.58" width="54.51" height="54.51"/>
  <rect class="st2" x="2940.52" y="4548.24" width="90.85" height="90.85"/>
  <rect class="st2" x="2913.26" y="4493.72" width="145.37" height="145.37"/>
  <rect class="st2" x="2867.84" y="4402.87" width="236.22" height="236.22"/>
  <rect class="st2" x="2795.15" y="4257.5" width="381.59" height="381.59"/>
  <rect class="st2" x="2676.74" y="4020.67" width="618.41" height="618.41"/>
  <rect class="st2" x="2485.94" y="3639.09" width="1000" height="1000"/>
  <path class="st2" d="M2976.86,4620.92c0,10.04,8.13,18.17,18.17,18.17"/>
  <path class="st2" d="M2976.86,4639.09c0-10.04,8.13-18.17,18.17-18.17"/>
  <path class="st2" d="M2967.77,4602.75c20.09,0,36.34,16.25,36.34,36.34"/>
  <path class="st2" d="M3013.2,4584.58c0,30.13-24.38,54.51-54.51,54.51"/>
  <path class="st2" d="M3031.37,4639.09c-50.22,0-90.85-40.64-90.85-90.85"/>
  <path class="st2" d="M2913.6,4639.09c0-80.35,65.02-145.37,145.37-145.37"/>
  <path class="st2" d="M2868.17,4402.87c130.57,0,236.22,105.65,236.22,236.22"/>
  <path class="st2" d="M3176.74,4257.5c0,210.92-170.67,381.59-381.59,381.59"/>
  <path class="st2" d="M3295.49,4639.09c-341.82,0-618.41-276.6-618.41-618.41"/>
  <path class="st2" d="M2486.28,4639.09c0-552.73,447.27-1000,1000-1000"/>
  <circle class="st2" cx="2985.94" cy="4630" r="9.09"/>
  <circle class="st2" cx="2985.94" cy="4630" r="9.09"/>
  <circle class="st2" cx="2985.94" cy="4620.92" r="18.17"/>
  <circle class="st2" cx="2985.94" cy="4611.83" r="27.26"/>
  <circle class="st2" cx="2985.94" cy="4593.66" r="45.43"/>
  <circle class="st2" cx="2985.94" cy="4566.1" r="72.99"/>
  <circle class="st2" cx="2985.94" cy="4520.98" r="118.11"/>
  <circle class="st2" cx="2985.94" cy="4448.3" r="190.79"/>
  <circle class="st2" cx="2985.94" cy="4329.88" r="309.21"/>
  <circle class="st2" cx="2985.94" cy="4139.09" r="500"/>
  <rect class="st1" x="-609.9" y="5749.55" width="78.12" height="78.12"/>
  <rect class="st1" x="-609.9" y="5749.55" width="78.12" height="78.12"/>
  <rect class="st1" x="-648.96" y="5710.49" width="156.23" height="156.23"/>
  <rect class="st1" x="-688.02" y="5671.43" width="234.35" height="234.35"/>
  <rect class="st1" x="-766.14" y="5593.31" width="390.59" height="390.59"/>
  <rect class="st1" x="-883.31" y="5476.14" width="624.94" height="624.94"/>
  <rect class="st1" x="-1078.61" y="5280.84" width="1015.52" height="1015.52"/>
  <rect class="st1" x="-1391.07" y="4968.38" width="1640.46" height="1640.46"/>
  <rect class="st1" x="-1900.14" y="4459.31" width="2658.6" height="2658.6"/>
  <rect class="st1" x="-2720.37" y="3639.08" width="4299.05" height="4299.05"/>
  <path class="st1" d="M-609.9,5749.55c0,43.18,34.94,78.12,78.12,78.12"/>
  <path class="st1" d="M-609.9,5827.66c0-43.18,34.94-78.12,78.12-78.12"/>
  <path class="st1" d="M-648.96,5710.49c86.36,0,156.23,69.88,156.23,156.23"/>
  <path class="st1" d="M-453.67,5671.43c0,129.53-104.82,234.35-234.35,234.35"/>
  <path class="st1" d="M-375.55,5983.9c-215.89,0-390.59-174.7-390.59-390.59"/>
  <path class="st1" d="M-883.31,6101.07c0-345.42,279.51-624.94,624.94-624.94"/>
  <path class="st1" d="M-1078.61,5280.84c561.31,0,1015.52,454.21,1015.52,1015.52"/>
  <path class="st1" d="M249.38,4968.38c0,906.74-733.72,1640.46-1640.46,1640.46"/>
  <path class="st1" d="M758.45,7117.9c-1469.5,0-2658.59-1189.1-2658.59-2658.59"/>
  <path class="st1" d="M-2720.37,7938.13c0-2376.23,1922.82-4299.05,4299.05-4299.05"/>
  <circle class="st1" cx="-570.85" cy="5788.61" r="39.06"/>
  <circle class="st1" cx="-570.85" cy="5788.61" r="39.06"/>
  <circle class="st1" cx="-570.85" cy="5788.61" r="78.12"/>
  <circle class="st1" cx="-570.85" cy="5788.61" r="117.17"/>
  <circle class="st1" cx="-570.85" cy="5788.61" r="195.29"/>
  <circle class="st1" cx="-570.85" cy="5788.61" r="313.78"/>
  <circle class="st1" cx="-570.85" cy="5788.61" r="507.75"/>
  <circle class="st1" cx="-570.85" cy="5788.61" r="820.2"/>
  <circle class="st1" cx="-570.85" cy="5788.61" r="1329.3"/>
  <circle class="st1" cx="-570.85" cy="5788.61" r="2149.52"/>
  <rect class="st1" x="-4602.07" y="6079.77" width="78.12" height="78.12"/>
  <rect class="st1" x="-4602.07" y="6157.89" width="78.12" height="78.12"/>
  <rect class="st1" x="-4523.95" y="6079.77" width="156.23" height="156.23"/>
  <rect class="st1" x="-4602.07" y="6236" width="234.35" height="234.35"/>
  <rect class="st1" x="-4992.65" y="6079.77" width="390.59" height="390.59"/>
  <rect class="st1" x="-4992.65" y="5454.83" width="624.94" height="624.94"/>
  <rect class="st1" x="-4367.72" y="5454.83" width="1015.52" height="1015.52"/>
  <rect class="st1" x="-4992.65" y="6470.35" width="1640.46" height="1640.46"/>
  <rect class="st1" x="-7651.25" y="5454.83" width="2658.6" height="2658.6"/>
  <rect class="st1" x="-7651.25" y="1155.78" width="4299.05" height="4299.05"/>
  <path class="st1" d="M-4602.07,6157.89c0,43.18,34.94,78.12,78.12,78.12"/>
  <path class="st1" d="M-4602.07,6157.89c0-43.18,34.94-78.12,78.12-78.12"/>
  <path class="st1" d="M-4523.95,6079.77c86.36,0,156.23,69.88,156.23,156.23"/>
  <path class="st1" d="M-4367.72,6236c0,129.53-104.82,234.35-234.35,234.35"/>
  <path class="st1" d="M-4602.07,6470.35c-215.89,0-390.59-174.7-390.59-390.59"/>
  <path class="st1" d="M-4992.65,6079.77c0-345.42,279.51-624.94,624.94-624.94"/>
  <path class="st1" d="M-4367.72,5454.83c561.31,0,1015.52,454.21,1015.52,1015.52"/>
  <path class="st1" d="M-3352.2,6470.35c0,906.74-733.72,1640.46-1640.46,1640.46"/>
  <path class="st1" d="M-4992.65,8110.81c-1469.5,0-2658.59-1189.1-2658.59-2658.59"/>
  <path class="st1" d="M-7651.25,5454.83c0-2376.23,1922.82-4299.05,4299.05-4299.05"/>
  <circle class="st1" cx="-4563.01" cy="6118.83" r="39.06"/>
  <circle class="st1" cx="-4563.01" cy="6196.94" r="39.06"/>
  <circle class="st1" cx="-4445.83" cy="6157.89" r="78.12"/>
  <circle class="st1" cx="-4484.9" cy="6353.19" r="117.17"/>
  <circle class="st1" cx="-4797.36" cy="6275.07" r="195.29"/>
  <circle class="st1" cx="-4678.87" cy="5766" r="313.78"/>
  <circle class="st1" cx="-3859.96" cy="5959.96" r="507.75"/>
  <circle class="st1" cx="-4172.4" cy="7290.53" r="820.2"/>
  <circle class="st1" cx="-6321.95" cy="6781.44" r="1329.3"/>
  <circle class="st1" cx="-5501.71" cy="3305.3" r="2149.52"/>
  <path class="st3" d="M3007.99,4627.21c-3.56-2.68-7.17-4.28-13.34-5.59-2.27-5.96-3.6-12.73-4.41-17.7-.14-1.04-.28-2.02-.42-2.91-1.17-8.33-2.25-25.22-2.25-25.22,0-.91-.65-1.99-1.62-1.99-.97,0-1.62,1.08-1.62,1.99,0,0-1.08,16.89-2.25,25.22-.14.89-.27,1.87-.42,2.91-.82,4.97-2.14,11.74-4.41,17.71-6.17,1.3-9.78,2.91-13.34,5.59-9.23,6.93-3.89,11.88-.73,11.88.13,0,.26,0,.39,0,.15,0,.3,0,.45,0,4.59.09,8.93-2.69,11.63-6.21,2.27-2.98,3.86-5.7,5.31-9.52,1.1-.17,2.77-.34,5-.34s3.91.17,5,.34c1.45,3.81,3.04,6.54,5.31,9.52,2.7,3.52,7.04,6.29,11.63,6.21.15,0,.3,0,.45,0,.13,0,.26,0,.39,0,3.16,0,8.5-4.95-.73-11.88ZM3003.46,4627.49c2.35,1.55,3.46,3.32,2.91,5.39-.89,3.37-7.25.09-10.73-8.59,3.17.85,5.82,1.99,7.82,3.2ZM2985.94,4602.44c.89,6.25,2.18,12.7,4.23,18.55-1.72-.17-2.41-.2-4.23-.2s-2.51.03-4.23.2c2.04-5.84,3.34-12.29,4.23-18.55ZM2968.43,4627.49c2-1.21,4.65-2.35,7.82-3.2-3.48,8.69-9.84,11.96-10.73,8.59-.55-2.08.55-3.84,2.91-5.39Z"/>
  <rect class="st0" width="311.81" height="141.73"/>
  <g>
    <g>
      <path class="st4" d="M127.26,85.01h5.1l3.06-6.9h9.9l3.08,6.9h5.1l-13.12-28.35-13.12,28.35ZM144.02,74.27h-7.28l3.64-8.52,3.64,8.52Z"/>
      <path class="st4" d="M174.17,75.4c0,1.66-.45,3-1.34,4.01-.9,1.01-2.2,1.52-3.91,1.52s-3.05-.5-3.93-1.52c-.88-1.01-1.32-2.35-1.32-4.01v-18.68h-4.53v18.87c0,1.48.23,2.81.69,3.97.46,1.16,1.13,2.15,2.01,2.97.88.82,1.92,1.45,3.13,1.88,1.2.43,2.52.65,3.95.65s2.75-.22,3.95-.65c1.2-.43,2.24-1.06,3.11-1.88.87-.82,1.54-1.81,2.01-2.97.47-1.16.71-2.49.71-3.97v-18.87h-4.53v18.68Z"/>
      <path class="st4" d="M201.89,73.24c1.52-.73,2.71-1.75,3.54-3.08.84-1.32,1.26-2.88,1.26-4.66s-.42-3.33-1.26-4.64c-.84-1.31-2.02-2.33-3.54-3.06-1.53-.73-3.31-1.09-5.37-1.09h-8.75v28.35h4.78v-10.73h2.92l7.16,10.73h5.75l-8-11.27c.52-.16,1.02-.33,1.5-.56ZM192.55,60.85h3.77c1.08,0,2.03.19,2.85.57.82.38,1.47.92,1.92,1.62.46.7.69,1.57.69,2.59s-.23,1.86-.69,2.57c-.46.72-1.1,1.26-1.92,1.64-.82.38-1.78.57-2.85.57h-3.77v-9.56Z"/>
      <polygon class="st4" points="211.77 61.13 219.22 61.13 219.22 85.07 224.04 85.07 224.04 61.13 231.53 61.13 231.53 56.72 211.77 56.72 211.77 61.13"/>
      <path class="st4" d="M252.99,75.4c0,1.66-.45,3-1.34,4.01-.9,1.01-2.2,1.52-3.91,1.52s-3.05-.5-3.93-1.52c-.88-1.01-1.32-2.35-1.32-4.01v-18.68h-4.53v18.87c0,1.48.23,2.81.69,3.97.46,1.16,1.13,2.15,2.01,2.97.88.82,1.92,1.45,3.13,1.88,1.2.43,2.52.65,3.95.65s2.75-.22,3.95-.65c1.2-.43,2.24-1.06,3.11-1.88.87-.82,1.54-1.81,2.01-2.97.47-1.16.71-2.49.71-3.97v-18.87h-4.53v18.68Z"/>
      <path class="st4" d="M283.02,73.8c-.4-.88-.94-1.66-1.62-2.32-.68-.66-1.42-1.21-2.24-1.66-.82-.44-1.63-.81-2.44-1.09-1.46-.52-2.64-1.03-3.55-1.52-.91-.49-1.58-1.02-2.01-1.58-.43-.56-.64-1.19-.64-1.89,0-.78.3-1.46.9-2.05.6-.59,1.53-.88,2.81-.88.91,0,1.71.18,2.4.53.69.35,1.29.82,1.81,1.4.52.59.95,1.22,1.29,1.89l3.74-2.11c-.47-.96-1.11-1.88-1.93-2.77-.82-.88-1.83-1.61-3.02-2.18-1.2-.57-2.6-.86-4.21-.86s-3.1.31-4.39.92c-1.29.61-2.31,1.47-3.06,2.57-.75,1.11-1.13,2.39-1.13,3.84,0,1.27.25,2.36.74,3.26s1.12,1.65,1.87,2.26c.75.61,1.55,1.12,2.38,1.52.83.4,1.59.72,2.26.96,1.14.42,2.15.84,3.02,1.27.87.43,1.55.95,2.05,1.56.49.61.74,1.42.74,2.44,0,1.07-.39,1.94-1.17,2.61-.78.68-1.79,1.01-3.04,1.01-1.04,0-1.98-.21-2.81-.64-.83-.43-1.59-1.04-2.28-1.83-.69-.79-1.33-1.71-1.93-2.75l-3.43,2.38c.6,1.25,1.4,2.41,2.42,3.47,1.01,1.07,2.2,1.92,3.57,2.55,1.37.64,2.85.96,4.47.96,1.17,0,2.29-.19,3.37-.56,1.08-.38,2.05-.91,2.9-1.6.86-.69,1.53-1.54,2.03-2.55.49-1.01.74-2.16.74-3.43,0-1.2-.2-2.24-.61-3.12Z"/>
    </g>
    <path class="st4" d="M92.21,97.86c-4.63-3.48-9.32-5.57-17.34-7.27-2.95-7.75-4.68-16.55-5.74-23.01-.19-1.35-.36-2.63-.54-3.79-1.52-10.82-2.93-32.78-2.93-32.78,0-1.18-.85-2.59-2.11-2.59-1.26,0-2.11,1.41-2.11,2.59,0,0-1.4,21.96-2.93,32.78-.18,1.16-.35,2.43-.54,3.79-1.06,6.46-2.78,15.26-5.74,23.01-8.02,1.7-12.71,3.79-17.34,7.27-12,9.01-5.05,15.44-.95,15.44.17,0,.34,0,.51,0,.19.01.39.01.58,0,5.96.11,11.61-3.49,15.11-8.07,2.95-3.87,5.01-7.41,6.9-12.37,1.42-.22,3.6-.44,6.5-.44s5.08.22,6.5.44c1.89,4.96,3.95,8.5,6.9,12.37,3.5,4.58,9.15,8.18,15.11,8.07.2.01.39,0,.58,0,.17,0,.34,0,.51,0,4.1,0,11.05-6.43-.95-15.44ZM86.31,98.23c3.06,2.01,4.49,4.31,3.78,7.01-1.16,4.38-9.42.12-13.94-11.17,4.12,1.11,7.57,2.58,10.16,4.16ZM63.55,65.67c1.15,8.13,2.84,16.51,5.49,24.11-2.23-.22-3.13-.26-5.49-.26s-3.26.04-5.49.26c2.65-7.6,4.34-15.98,5.49-24.11ZM40.79,98.23c2.6-1.58,6.04-3.05,10.16-4.16-4.53,11.29-12.79,15.55-13.94,11.17-.71-2.7.72-5,3.78-7.01Z"/>
  </g>
</svg>