<?xml version="1.0" encoding="UTF-8"?>
<svg id="Layer_1" xmlns="http://www.w3.org/2000/svg" version="1.1" viewBox="0 0 212.49 212.49">
  <!-- Generator: Adobe Illustrator 29.8.6, SVG Export Plug-In . SVG Version: 2.1.1 Build 1)  -->
  <defs>
    <style>
      .st0, .st1, .st2 {
        fill: none;
      }

      .st3 {
        fill: #e8e7e2;
      }

      .st1 {
        stroke: #000;
        stroke-width: .2px;
      }

      .st1, .st2 {
        stroke-miterlimit: 10;
      }

      .st4 {
        fill: #cba365;
      }

      .st2 {
        stroke: #fff;
        stroke-width: .05px;
      }
    </style>
  </defs>
  <rect class="st2" x="3242.24" y="4627.75" width="18.17" height="18.17"/>
  <rect class="st2" x="3242.24" y="4627.75" width="18.17" height="18.17"/>
  <rect class="st2" x="3233.16" y="4609.58" width="36.34" height="36.34"/>
  <rect class="st2" x="3224.07" y="4591.41" width="54.51" height="54.51"/>
  <rect class="st2" x="3205.9" y="4555.06" width="90.85" height="90.85"/>
  <rect class="st2" x="3178.65" y="4500.55" width="145.37" height="145.37"/>
  <rect class="st2" x="3133.22" y="4409.7" width="236.22" height="236.22"/>
  <rect class="st2" x="3060.54" y="4264.33" width="381.59" height="381.59"/>
  <rect class="st2" x="2942.12" y="4027.5" width="618.41" height="618.41"/>
  <rect class="st2" x="2751.33" y="3645.92" width="1000" height="1000"/>
  <path class="st2" d="M3242.24,4627.75c0,10.04,8.13,18.17,18.17,18.17"/>
  <path class="st2" d="M3242.24,4645.92c0-10.04,8.13-18.17,18.17-18.17"/>
  <path class="st2" d="M3233.16,4609.58c20.09,0,36.34,16.25,36.34,36.34"/>
  <path class="st2" d="M3278.59,4591.41c0,30.13-24.38,54.51-54.51,54.51"/>
  <path class="st2" d="M3296.76,4645.92c-50.22,0-90.85-40.64-90.85-90.85"/>
  <path class="st2" d="M3178.98,4645.92c0-80.35,65.02-145.37,145.37-145.37"/>
  <path class="st2" d="M3133.56,4409.7c130.57,0,236.22,105.65,236.22,236.22"/>
  <path class="st2" d="M3442.12,4264.33c0,210.92-170.67,381.59-381.59,381.59"/>
  <path class="st2" d="M3560.87,4645.92c-341.82,0-618.41-276.6-618.41-618.41"/>
  <path class="st2" d="M2751.67,4645.92c0-552.73,447.27-1000,1000-1000"/>
  <circle class="st2" cx="3251.33" cy="4636.83" r="9.09"/>
  <circle class="st2" cx="3251.33" cy="4636.83" r="9.09"/>
  <circle class="st2" cx="3251.33" cy="4627.75" r="18.17"/>
  <circle class="st2" cx="3251.33" cy="4618.66" r="27.26"/>
  <circle class="st2" cx="3251.33" cy="4600.49" r="45.43"/>
  <circle class="st2" cx="3251.33" cy="4572.93" r="72.99"/>
  <circle class="st2" cx="3251.33" cy="4527.81" r="118.11"/>
  <circle class="st2" cx="3251.33" cy="4455.13" r="190.79"/>
  <circle class="st2" cx="3251.33" cy="4336.71" r="309.21"/>
  <circle class="st2" cx="3251.33" cy="4145.92" r="500"/>
  <rect class="st1" x="-344.52" y="5756.38" width="78.12" height="78.12"/>
  <rect class="st1" x="-344.52" y="5756.38" width="78.12" height="78.12"/>
  <rect class="st1" x="-383.58" y="5717.32" width="156.23" height="156.23"/>
  <rect class="st1" x="-422.64" y="5678.26" width="234.35" height="234.35"/>
  <rect class="st1" x="-500.75" y="5600.14" width="390.59" height="390.59"/>
  <rect class="st1" x="-617.93" y="5482.97" width="624.94" height="624.94"/>
  <rect class="st1" x="-813.22" y="5287.67" width="1015.52" height="1015.52"/>
  <rect class="st1" x="-1125.69" y="4975.21" width="1640.46" height="1640.46"/>
  <rect class="st1" x="-1634.76" y="4466.14" width="2658.6" height="2658.6"/>
  <rect class="st1" x="-2454.99" y="3645.91" width="4299.05" height="4299.05"/>
  <path class="st1" d="M-344.52,5756.38c0,43.18,34.94,78.12,78.12,78.12"/>
  <path class="st1" d="M-344.52,5834.49c0-43.18,34.94-78.12,78.12-78.12"/>
  <path class="st1" d="M-383.58,5717.32c86.36,0,156.23,69.88,156.23,156.23"/>
  <path class="st1" d="M-188.29,5678.26c0,129.53-104.82,234.35-234.35,234.35"/>
  <path class="st1" d="M-110.17,5990.73c-215.89,0-390.59-174.7-390.59-390.59"/>
  <path class="st1" d="M-617.93,6107.9c0-345.42,279.51-624.94,624.94-624.94"/>
  <path class="st1" d="M-813.22,5287.67c561.31,0,1015.52,454.21,1015.52,1015.52"/>
  <path class="st1" d="M514.77,4975.21c0,906.74-733.72,1640.46-1640.46,1640.46"/>
  <path class="st1" d="M1023.84,7124.73c-1469.5,0-2658.59-1189.1-2658.59-2658.59"/>
  <path class="st1" d="M-2454.99,7944.96c0-2376.23,1922.82-4299.05,4299.05-4299.05"/>
  <circle class="st1" cx="-305.46" cy="5795.43" r="39.06"/>
  <circle class="st1" cx="-305.46" cy="5795.43" r="39.06"/>
  <circle class="st1" cx="-305.46" cy="5795.43" r="78.12"/>
  <circle class="st1" cx="-305.46" cy="5795.43" r="117.17"/>
  <circle class="st1" cx="-305.46" cy="5795.43" r="195.29"/>
  <circle class="st1" cx="-305.46" cy="5795.43" r="313.78"/>
  <circle class="st1" cx="-305.46" cy="5795.43" r="507.75"/>
  <circle class="st1" cx="-305.46" cy="5795.43" r="820.2"/>
  <circle class="st1" cx="-305.46" cy="5795.43" r="1329.3"/>
  <circle class="st1" cx="-305.46" cy="5795.43" r="2149.52"/>
  <rect class="st1" x="-4336.68" y="6086.6" width="78.12" height="78.12"/>
  <rect class="st1" x="-4336.68" y="6164.72" width="78.12" height="78.12"/>
  <rect class="st1" x="-4258.57" y="6086.6" width="156.23" height="156.23"/>
  <rect class="st1" x="-4336.68" y="6242.83" width="234.35" height="234.35"/>
  <rect class="st1" x="-4727.27" y="6086.6" width="390.59" height="390.59"/>
  <rect class="st1" x="-4727.27" y="5461.66" width="624.94" height="624.94"/>
  <rect class="st1" x="-4102.33" y="5461.66" width="1015.52" height="1015.52"/>
  <rect class="st1" x="-4727.27" y="6477.18" width="1640.46" height="1640.46"/>
  <rect class="st1" x="-7385.86" y="5461.66" width="2658.6" height="2658.6"/>
  <rect class="st1" x="-7385.86" y="1162.61" width="4299.05" height="4299.05"/>
  <path class="st1" d="M-4336.68,6164.72c0,43.18,34.94,78.12,78.12,78.12"/>
  <path class="st1" d="M-4336.68,6164.72c0-43.18,34.94-78.12,78.12-78.12"/>
  <path class="st1" d="M-4258.57,6086.6c86.36,0,156.23,69.88,156.23,156.23"/>
  <path class="st1" d="M-4102.33,6242.83c0,129.53-104.82,234.35-234.35,234.35"/>
  <path class="st1" d="M-4336.68,6477.18c-215.89,0-390.59-174.7-390.59-390.59"/>
  <path class="st1" d="M-4727.27,6086.6c0-345.42,279.51-624.94,624.94-624.94"/>
  <path class="st1" d="M-4102.33,5461.66c561.31,0,1015.52,454.21,1015.52,1015.52"/>
  <path class="st1" d="M-3086.81,6477.18c0,906.74-733.72,1640.46-1640.46,1640.46"/>
  <path class="st1" d="M-4727.27,8117.64c-1469.5,0-2658.59-1189.1-2658.59-2658.59"/>
  <path class="st1" d="M-7385.86,5461.66c0-2376.23,1922.82-4299.05,4299.05-4299.05"/>
  <circle class="st1" cx="-4297.62" cy="6125.66" r="39.06"/>
  <circle class="st1" cx="-4297.62" cy="6203.77" r="39.06"/>
  <circle class="st1" cx="-4180.45" cy="6164.72" r="78.12"/>
  <circle class="st1" cx="-4219.51" cy="6360.02" r="117.17"/>
  <circle class="st1" cx="-4531.98" cy="6281.9" r="195.29"/>
  <circle class="st1" cx="-4413.49" cy="5772.83" r="313.78"/>
  <circle class="st1" cx="-3594.58" cy="5966.79" r="507.75"/>
  <circle class="st1" cx="-3907.02" cy="7297.36" r="820.2"/>
  <circle class="st1" cx="-6056.57" cy="6788.27" r="1329.3"/>
  <circle class="st1" cx="-5236.33" cy="3312.13" r="2149.52"/>
  <path class="st3" d="M3273.38,4634.04c-3.56-2.68-7.17-4.28-13.34-5.59-2.27-5.96-3.6-12.73-4.41-17.7-.14-1.04-.28-2.02-.42-2.91-1.17-8.33-2.25-25.22-2.25-25.22,0-.91-.65-1.99-1.62-1.99-.97,0-1.62,1.08-1.62,1.99,0,0-1.08,16.89-2.25,25.22-.14.89-.27,1.87-.42,2.91-.82,4.97-2.14,11.74-4.41,17.71-6.17,1.3-9.78,2.91-13.34,5.59-9.23,6.93-3.89,11.88-.73,11.88.13,0,.26,0,.39,0,.15,0,.3,0,.45,0,4.59.09,8.93-2.69,11.63-6.21,2.27-2.98,3.86-5.7,5.31-9.52,1.1-.17,2.77-.34,5-.34s3.91.17,5,.34c1.45,3.81,3.04,6.54,5.31,9.52,2.7,3.52,7.04,6.29,11.63,6.21.15,0,.3,0,.45,0,.13,0,.26,0,.39,0,3.16,0,8.5-4.95-.73-11.88ZM3268.84,4634.32c2.35,1.55,3.46,3.32,2.91,5.39-.89,3.37-7.25.09-10.73-8.59,3.17.85,5.82,1.99,7.82,3.2ZM3251.33,4609.27c.89,6.25,2.18,12.7,4.23,18.55-1.72-.17-2.41-.2-4.23-.2s-2.51.03-4.23.2c2.04-5.84,3.34-12.29,4.23-18.55ZM3233.82,4634.32c2-1.21,4.65-2.35,7.82-3.2-3.48,8.69-9.84,11.96-10.73,8.59-.55-2.08.55-3.84,2.91-5.39Z"/>
  <rect class="st0" x="0" y="0" width="212.49" height="212.49"/>
  <g>
    <g>
      <path class="st4" d="M28.21,177.16h5.09l3.05-6.89h9.88l3.07,6.89h5.09l-13.09-28.29-13.09,28.29ZM44.94,166.44h-7.27l3.64-8.5,3.63,8.5Z"/>
      <path class="st4" d="M75.03,167.57c0,1.66-.45,2.99-1.34,4-.89,1.01-2.2,1.51-3.91,1.51s-3.04-.5-3.92-1.51c-.88-1.01-1.32-2.34-1.32-4v-18.64h-4.52v18.84c0,1.48.23,2.8.69,3.96.46,1.16,1.13,2.15,2.01,2.97.88.82,1.92,1.44,3.12,1.88,1.2.43,2.51.65,3.94.65s2.74-.22,3.94-.65,2.23-1.06,3.1-1.88c.87-.82,1.54-1.81,2.01-2.97.47-1.16.71-2.48.71-3.96v-18.84h-4.52v18.64Z"/>
      <path class="st4" d="M102.7,165.41c1.52-.73,2.7-1.75,3.54-3.07.84-1.32,1.25-2.87,1.25-4.65s-.42-3.32-1.25-4.63c-.83-1.31-2.01-2.32-3.54-3.05-1.52-.73-3.31-1.09-5.36-1.09h-8.73v28.29h4.77v-10.71h2.91l7.15,10.71h5.74l-7.98-11.24c.52-.16,1.02-.33,1.49-.56ZM93.38,153.05h3.76c1.08,0,2.03.19,2.85.57.82.38,1.46.92,1.92,1.62.46.7.69,1.56.69,2.59s-.23,1.85-.69,2.57c-.46.71-1.1,1.26-1.92,1.64-.82.38-1.77.57-2.85.57h-3.76v-9.54Z"/>
      <polygon class="st4" points="112.56 153.33 120 153.33 120 177.22 124.81 177.22 124.81 153.33 132.29 153.33 132.29 148.92 112.56 148.92 112.56 153.33"/>
      <path class="st4" d="M153.71,167.57c0,1.66-.45,2.99-1.34,4-.89,1.01-2.2,1.51-3.91,1.51s-3.04-.5-3.92-1.51c-.88-1.01-1.32-2.34-1.32-4v-18.64h-4.52v18.84c0,1.48.23,2.8.69,3.96.46,1.16,1.13,2.15,2.01,2.97.88.82,1.92,1.44,3.12,1.88,1.2.43,2.51.65,3.94.65s2.74-.22,3.94-.65,2.23-1.06,3.1-1.88c.87-.82,1.54-1.81,2.01-2.97.47-1.16.71-2.48.71-3.96v-18.84h-4.52v18.64Z"/>
      <path class="st4" d="M183.68,165.97c-.4-.88-.94-1.65-1.61-2.32-.68-.66-1.42-1.21-2.24-1.65-.82-.44-1.63-.8-2.43-1.09-1.45-.52-2.63-1.02-3.54-1.52-.91-.49-1.58-1.02-2.01-1.58-.43-.56-.64-1.19-.64-1.89,0-.78.3-1.46.9-2.04.6-.58,1.53-.88,2.8-.88.91,0,1.71.18,2.39.53.69.35,1.29.82,1.81,1.4.52.58.95,1.21,1.28,1.89l3.74-2.1c-.47-.96-1.11-1.88-1.93-2.76-.82-.88-1.82-1.61-3.02-2.18-1.19-.57-2.6-.86-4.2-.86s-3.09.31-4.38.91c-1.28.61-2.3,1.47-3.05,2.57-.75,1.1-1.13,2.38-1.13,3.83,0,1.27.25,2.35.74,3.25.49.9,1.12,1.65,1.87,2.26.75.61,1.54,1.12,2.37,1.52.83.4,1.58.72,2.26.95,1.14.41,2.15.84,3.02,1.26.87.43,1.55.95,2.04,1.56.49.61.74,1.42.74,2.43,0,1.06-.39,1.93-1.17,2.61-.78.67-1.79,1.01-3.04,1.01-1.04,0-1.97-.21-2.8-.64-.83-.43-1.59-1.04-2.28-1.83-.69-.79-1.33-1.71-1.93-2.74l-3.42,2.37c.6,1.25,1.4,2.4,2.41,3.46,1.01,1.06,2.2,1.91,3.56,2.55,1.36.64,2.85.95,4.46.95,1.17,0,2.29-.19,3.37-.56,1.08-.38,2.04-.91,2.9-1.6.86-.69,1.53-1.54,2.02-2.55.49-1.01.74-2.15.74-3.42,0-1.19-.2-2.23-.6-3.11Z"/>
    </g>
    <path class="st4" d="M134.96,104.85c-4.64-3.48-9.34-5.58-17.38-7.28-2.96-7.77-4.68-16.58-5.75-23.06-.19-1.36-.36-2.63-.54-3.8-1.53-10.85-2.93-32.84-2.93-32.84,0-1.18-.85-2.6-2.12-2.59-1.27,0-2.12,1.41-2.12,2.59,0,0-1.41,22-2.93,32.84-.18,1.16-.35,2.44-.54,3.79-1.06,6.48-2.79,15.29-5.75,23.06-8.03,1.7-12.74,3.79-17.38,7.28-12.02,9.03-5.06,15.47-.95,15.47.17,0,.34,0,.51,0,.19.01.39.01.59,0,5.97.11,11.63-3.5,15.14-8.08,2.95-3.88,5.02-7.43,6.91-12.39,1.43-.22,3.61-.44,6.51-.44s5.09.22,6.51.44c1.89,4.96,3.96,8.51,6.91,12.39,3.51,4.59,9.17,8.2,15.14,8.08.2.01.39,0,.59,0,.17,0,.34,0,.51,0,4.11,0,11.07-6.44-.95-15.47ZM129.05,105.22c3.07,2.02,4.5,4.32,3.79,7.02-1.16,4.39-9.44.12-13.97-11.19,4.13,1.11,7.58,2.59,10.18,4.17ZM106.25,72.59c1.15,8.14,2.84,16.54,5.5,24.15-2.23-.22-3.14-.26-5.5-.26s-3.27.04-5.5.26c2.66-7.61,4.35-16.01,5.5-24.15ZM83.44,105.22c2.6-1.58,6.05-3.06,10.18-4.17-4.53,11.31-12.81,15.58-13.97,11.19-.71-2.7.72-5.01,3.79-7.02Z"/>
  </g>
</svg>