<?xml version="1.0" encoding="UTF-8"?>
<svg id="Layer_1" xmlns="http://www.w3.org/2000/svg" version="1.1" viewBox="0 0 141.73 141.73">
  <!-- Generator: Adobe Illustrator 29.8.6, SVG Export Plug-In . SVG Version: 2.1.1 Build 1)  -->
  <defs>
    <style>
      .st0, .st1, .st2 {
        fill: none;
      }

      .st3 {
        fill: #e8e7e2;
      }

      .st1 {
        stroke: #000;
        stroke-width: .2px;
      }

      .st1, .st2 {
        stroke-miterlimit: 10;
      }

      .st4 {
        fill: #cba365;
      }

      .st2 {
        stroke: #fff;
        stroke-width: .05px;
      }
    </style>
  </defs>
  <rect class="st0" x="0" width="141.73" height="141.73"/>
  <path class="st4" d="M99.58,97.92c-4.64-3.48-9.34-5.58-17.38-7.28-2.96-7.77-4.68-16.58-5.75-23.06-.19-1.36-.36-2.63-.54-3.8-1.53-10.85-2.93-32.84-2.93-32.84,0-1.18-.85-2.6-2.12-2.59-1.27,0-2.12,1.41-2.12,2.59,0,0-1.41,22-2.93,32.84-.18,1.16-.35,2.44-.54,3.79-1.06,6.48-2.79,15.29-5.75,23.06-8.03,1.7-12.74,3.79-17.38,7.28-12.02,9.03-5.06,15.47-.95,15.47.17,0,.34,0,.51,0,.19.01.39.01.59,0,5.97.11,11.63-3.5,15.14-8.08,2.95-3.88,5.02-7.43,6.91-12.39,1.43-.22,3.61-.44,6.51-.44s5.09.22,6.51.44c1.89,4.96,3.96,8.51,6.91,12.39,3.51,4.59,9.17,8.2,15.14,8.08.2.01.39,0,.59,0,.17,0,.34,0,.51,0,4.11,0,11.07-6.44-.95-15.47ZM93.67,98.28c3.07,2.02,4.5,4.32,3.79,7.02-1.16,4.39-9.44.12-13.97-11.19,4.13,1.11,7.58,2.59,10.18,4.17ZM70.87,65.66c1.15,8.14,2.84,16.54,5.5,24.15-2.23-.22-3.14-.26-5.5-.26s-3.27.04-5.5.26c2.66-7.61,4.35-16.01,5.5-24.15ZM48.06,98.28c2.6-1.58,6.05-3.06,10.18-4.17-4.53,11.31-12.81,15.58-13.97,11.19-.71-2.7.72-5.01,3.79-7.02Z"/>
  <rect class="st2" x="3248.95" y="4885.43" width="18.17" height="18.17"/>
  <rect class="st2" x="3248.95" y="4885.43" width="18.17" height="18.17"/>
  <rect class="st2" x="3239.86" y="4867.26" width="36.34" height="36.34"/>
  <rect class="st2" x="3230.78" y="4849.09" width="54.51" height="54.51"/>
  <rect class="st2" x="3212.61" y="4812.75" width="90.85" height="90.85"/>
  <rect class="st2" x="3185.35" y="4758.23" width="145.37" height="145.37"/>
  <rect class="st2" x="3139.92" y="4667.38" width="236.22" height="236.22"/>
  <rect class="st2" x="3067.24" y="4522.01" width="381.59" height="381.59"/>
  <rect class="st2" x="2948.83" y="4285.19" width="618.41" height="618.41"/>
  <rect class="st2" x="2758.03" y="3903.6" width="1000" height="1000"/>
  <path class="st2" d="M3248.95,4885.43c0,10.04,8.13,18.17,18.17,18.17"/>
  <path class="st2" d="M3248.95,4903.6c0-10.04,8.13-18.17,18.17-18.17"/>
  <path class="st2" d="M3239.86,4867.26c20.09,0,36.34,16.25,36.34,36.34"/>
  <path class="st2" d="M3285.29,4849.09c0,30.13-24.38,54.51-54.51,54.51"/>
  <path class="st2" d="M3303.46,4903.6c-50.22,0-90.85-40.64-90.85-90.85"/>
  <path class="st2" d="M3185.69,4903.6c0-80.35,65.02-145.37,145.37-145.37"/>
  <path class="st2" d="M3140.26,4667.38c130.57,0,236.22,105.65,236.22,236.22"/>
  <path class="st2" d="M3448.83,4522.01c0,210.92-170.67,381.59-381.59,381.59"/>
  <path class="st2" d="M3567.58,4903.6c-341.82,0-618.41-276.6-618.41-618.41"/>
  <path class="st2" d="M2758.37,4903.6c0-552.73,447.27-1000,1000-1000"/>
  <circle class="st2" cx="3258.03" cy="4894.51" r="9.09"/>
  <circle class="st2" cx="3258.03" cy="4894.51" r="9.09"/>
  <circle class="st2" cx="3258.03" cy="4885.43" r="18.17"/>
  <circle class="st2" cx="3258.03" cy="4876.34" r="27.26"/>
  <circle class="st2" cx="3258.03" cy="4858.17" r="45.43"/>
  <circle class="st2" cx="3258.03" cy="4830.61" r="72.99"/>
  <circle class="st2" cx="3258.03" cy="4785.49" r="118.11"/>
  <circle class="st2" cx="3258.03" cy="4712.81" r="190.79"/>
  <circle class="st2" cx="3258.03" cy="4594.39" r="309.21"/>
  <circle class="st2" cx="3258.03" cy="4403.6" r="500"/>
  <rect class="st1" x="-337.81" y="6014.06" width="78.12" height="78.12"/>
  <rect class="st1" x="-337.81" y="6014.06" width="78.12" height="78.12"/>
  <rect class="st1" x="-376.87" y="5975" width="156.23" height="156.23"/>
  <rect class="st1" x="-415.93" y="5935.94" width="234.35" height="234.35"/>
  <rect class="st1" x="-494.05" y="5857.82" width="390.59" height="390.59"/>
  <rect class="st1" x="-611.22" y="5740.65" width="624.94" height="624.94"/>
  <rect class="st1" x="-806.52" y="5545.36" width="1015.52" height="1015.52"/>
  <rect class="st1" x="-1118.99" y="5232.89" width="1640.46" height="1640.46"/>
  <rect class="st1" x="-1628.05" y="4723.82" width="2658.6" height="2658.6"/>
  <rect class="st1" x="-2448.28" y="3903.59" width="4299.05" height="4299.05"/>
  <path class="st1" d="M-337.81,6014.06c0,43.18,34.94,78.12,78.12,78.12"/>
  <path class="st1" d="M-337.81,6092.17c0-43.18,34.94-78.12,78.12-78.12"/>
  <path class="st1" d="M-376.87,5975c86.36,0,156.23,69.88,156.23,156.23"/>
  <path class="st1" d="M-181.58,5935.94c0,129.53-104.82,234.35-234.35,234.35"/>
  <path class="st1" d="M-103.46,6248.41c-215.89,0-390.59-174.7-390.59-390.59"/>
  <path class="st1" d="M-611.22,6365.58c0-345.42,279.51-624.94,624.94-624.94"/>
  <path class="st1" d="M-806.52,5545.36c561.31,0,1015.52,454.21,1015.52,1015.52"/>
  <path class="st1" d="M521.47,5232.89c0,906.74-733.72,1640.46-1640.46,1640.46"/>
  <path class="st1" d="M1030.54,7382.41c-1469.5,0-2658.59-1189.1-2658.59-2658.59"/>
  <path class="st1" d="M-2448.28,8202.64c0-2376.23,1922.82-4299.05,4299.05-4299.05"/>
  <circle class="st1" cx="-298.76" cy="6053.12" r="39.06"/>
  <circle class="st1" cx="-298.76" cy="6053.12" r="39.06"/>
  <circle class="st1" cx="-298.76" cy="6053.12" r="78.12"/>
  <circle class="st1" cx="-298.76" cy="6053.12" r="117.17"/>
  <circle class="st1" cx="-298.76" cy="6053.12" r="195.29"/>
  <circle class="st1" cx="-298.76" cy="6053.12" r="313.78"/>
  <circle class="st1" cx="-298.76" cy="6053.12" r="507.75"/>
  <circle class="st1" cx="-298.76" cy="6053.12" r="820.2"/>
  <circle class="st1" cx="-298.76" cy="6053.12" r="1329.3"/>
  <circle class="st1" cx="-298.76" cy="6053.12" r="2149.52"/>
  <rect class="st1" x="-4329.98" y="6344.28" width="78.12" height="78.12"/>
  <rect class="st1" x="-4329.98" y="6422.4" width="78.12" height="78.12"/>
  <rect class="st1" x="-4251.86" y="6344.28" width="156.23" height="156.23"/>
  <rect class="st1" x="-4329.98" y="6500.51" width="234.35" height="234.35"/>
  <rect class="st1" x="-4720.56" y="6344.28" width="390.59" height="390.59"/>
  <rect class="st1" x="-4720.56" y="5719.34" width="624.94" height="624.94"/>
  <rect class="st1" x="-4095.63" y="5719.34" width="1015.52" height="1015.52"/>
  <rect class="st1" x="-4720.56" y="6734.86" width="1640.46" height="1640.46"/>
  <rect class="st1" x="-7379.16" y="5719.34" width="2658.6" height="2658.6"/>
  <rect class="st1" x="-7379.16" y="1420.29" width="4299.05" height="4299.05"/>
  <path class="st1" d="M-4329.98,6422.4c0,43.18,34.94,78.12,78.12,78.12"/>
  <path class="st1" d="M-4329.98,6422.4c0-43.18,34.94-78.12,78.12-78.12"/>
  <path class="st1" d="M-4251.86,6344.28c86.36,0,156.23,69.88,156.23,156.23"/>
  <path class="st1" d="M-4095.63,6500.51c0,129.53-104.82,234.35-234.35,234.35"/>
  <path class="st1" d="M-4329.98,6734.86c-215.89,0-390.59-174.7-390.59-390.59"/>
  <path class="st1" d="M-4720.56,6344.28c0-345.42,279.51-624.94,624.94-624.94"/>
  <path class="st1" d="M-4095.63,5719.34c561.31,0,1015.52,454.21,1015.52,1015.52"/>
  <path class="st1" d="M-3080.11,6734.86c0,906.74-733.72,1640.46-1640.46,1640.46"/>
  <path class="st1" d="M-4720.57,8375.32c-1469.5,0-2658.59-1189.1-2658.59-2658.59"/>
  <path class="st1" d="M-7379.16,5719.34c0-2376.23,1922.82-4299.05,4299.05-4299.05"/>
  <circle class="st1" cx="-4290.92" cy="6383.34" r="39.06"/>
  <circle class="st1" cx="-4290.92" cy="6461.45" r="39.06"/>
  <circle class="st1" cx="-4173.74" cy="6422.4" r="78.12"/>
  <circle class="st1" cx="-4212.81" cy="6617.7" r="117.17"/>
  <circle class="st1" cx="-4525.27" cy="6539.58" r="195.29"/>
  <circle class="st1" cx="-4406.78" cy="6030.51" r="313.78"/>
  <circle class="st1" cx="-3587.88" cy="6224.47" r="507.75"/>
  <circle class="st1" cx="-3900.31" cy="7555.05" r="820.2"/>
  <circle class="st1" cx="-6049.86" cy="7045.95" r="1329.3"/>
  <circle class="st1" cx="-5229.62" cy="3569.81" r="2149.52"/>
  <path class="st3" d="M3280.08,4891.72c-3.56-2.68-7.17-4.28-13.34-5.59-2.27-5.96-3.6-12.73-4.41-17.7-.14-1.04-.28-2.02-.42-2.91-1.17-8.33-2.25-25.22-2.25-25.22,0-.91-.65-1.99-1.62-1.99-.97,0-1.62,1.08-1.62,1.99,0,0-1.08,16.89-2.25,25.22-.14.89-.27,1.87-.42,2.91-.82,4.97-2.14,11.74-4.41,17.71-6.17,1.3-9.78,2.91-13.34,5.59-9.23,6.93-3.89,11.88-.73,11.88.13,0,.26,0,.39,0,.15,0,.3,0,.45,0,4.59.09,8.93-2.69,11.63-6.21,2.27-2.98,3.86-5.7,5.31-9.52,1.1-.17,2.77-.34,5-.34s3.91.17,5,.34c1.45,3.81,3.04,6.54,5.31,9.52,2.7,3.52,7.04,6.29,11.63,6.21.15,0,.3,0,.45,0,.13,0,.26,0,.39,0,3.16,0,8.5-4.95-.73-11.88ZM3275.55,4892c2.35,1.55,3.46,3.32,2.91,5.39-.89,3.37-7.25.09-10.73-8.59,3.17.85,5.82,1.99,7.82,3.2ZM3258.03,4866.95c.89,6.25,2.18,12.7,4.23,18.55-1.72-.17-2.41-.2-4.23-.2s-2.51.03-4.23.2c2.04-5.84,3.34-12.29,4.23-18.55ZM3240.52,4892c2-1.21,4.65-2.35,7.82-3.2-3.48,8.69-9.84,11.96-10.73,8.59-.55-2.08.55-3.84,2.91-5.39Z"/>
</svg>